# xmcd
#
# Track frame offsets:
#	150
#	15226
#	30452
#	47253
#	61054
#	81605
#	97206
#	113032
#	126383
#	140859
#
# Disc length: 2241 seconds
#
# Revision: 0
# Processed by: cddbd v1.5.2PL0 Copyright (c) Steve Scherf et al.
# Submitted via: audiograbber 1.83.01
#
DISCID=8308bf0a
DTITLE=Hank Williams, Jr. - Pure Hank
DYEAR=1991
DGENRE=Country
TTITLE0=If It Will It Will
TTITLE1=Angels Are Hard To Find
TTITLE2=Kiss Mother Nature Goodbye
TTITLE3=(I've Got My) Future On Ice
TTITLE4=Be Careful Who You Love (Arthur's Song)
TTITLE5=Memphis Belle
TTITLE6=Honky Tonk Train
TTITLE7=Hollywood Honeys
TTITLE8=Just To Satisfy You
TTITLE9=Simple Man
EXTD=
EXTT0=
EXTT1=
EXTT2=
EXTT3=
EXTT4=(Arthur's Song)
EXTT5=
EXTT6=
EXTT7=
EXTT8=
EXTT9=
PLAYORDER=
